<?xml version="1.0" encoding="utf-8"?>
<!-- Generator: Adobe Illustrator 20.0.0, SVG Export Plug-In . SVG Version: 6.00 Build 0)  -->
<svg version="1.1" id="Layer_1" xmlns="http://www.w3.org/2000/svg" xmlns:xlink="http://www.w3.org/1999/xlink" x="0px" y="0px"
	 viewBox="0 0 1388.2 431.1" style="enable-background:new 0 0 1388.2 431.1;" xml:space="preserve">
<g>
	<path d="M779.2,266.3c-3.7,15.3-6.4,30.8-8.4,46.5c-0.5,4.3-1.1,8.6-1.7,13c2.7,0.4,5.4,0.7,8.1,1.1c1.4-1.4,1.8-3.1,0.3-5.5
		c-0.6-0.9-0.5-2.3-0.4-3.4c0.3-2.6,0.7-5.3,1.1-7.9c2.2-11.7,4.5-23.5,6.7-35.2c2.1-11.1,4.1-22.2,6.2-33.2c2.5-13,4.9-26.1,7.9-39
		c4.4-18.7,9.2-37.4,13.9-56c2.1-8.5,4.4-17,6.5-25.5c0.4-1.6,0.3-3.4,1.1-4.8c2-3.7,1.3-7.7,1.7-11.6
		c-5.6,17.9-11.1,35.7-16.7,53.6c-0.5-1.6-0.5-3.1-0.3-4.5c1.9-11.9,3.9-23.9,5.9-35.8c3.2-19,6.5-37.9,9.7-56.8
		c1.6-9.5,3.3-19,4.9-28.4c0.3-1.6,0-3.3,0-4.9c-1.2,3.3-2.3,6.5-2.9,9.9c-2.5,12.5-4.9,25-7.3,37.6c-2.6,13.5-5.2,27-7.7,40.5
		c-2.4,12.9-4.6,25.8-6.9,38.7c-1.7,9.6-3.5,19.2-5.1,28.9c-1.6,9.5-2.6,19.1-4.5,28.5C787.7,230.2,783.5,248.3,779.2,266.3z"/>
	<path d="M743.7,211.8c-0.9,10.9-1.9,21.8-2.7,32.7c-0.6,7.8-0.8,15.6-1.2,23.4c-0.3,5.5-0.6,11-0.9,16.4c-0.1,1-0.2,2-0.5,3
		c-1.9,8.6-3.7,17.2-5.7,25.7c-0.6,2.8-1.6,5.5-2.5,8.2c4.2,0.4,8.3,0.8,12.5,1.3c0-0.2,0-0.5,0-0.7c0.2-9.6-0.5-19.4,0.7-28.9
		c1.6-12.5,4.8-24.7,7.1-37.1c1.7-9.5,3.1-19,4.6-28.5c0.8-5.4,1.6-10.9,2.3-16.4c0.4,3.2,0.5,6.3,0.4,9.4c-0.2,3.1-0.7,6.3-0.9,9.4
		c-0.7,12.1-1.5,24.2-2,36.3c-0.5,12.3-0.9,24.6-1.2,36.9c-0.1,5.8-0.1,11.6-1.8,17.3c-0.3,1-0.5,2.1-0.7,3.1c2.8,0.3,5.7,0.7,8.6,1
		c0-2.9,0.1-5.6-0.1-8.3c-0.4-6-0.2-12,0.5-17.9c2.4-18.3,5.2-36.5,7.7-54.7c1.5-11.5,2.7-23.1,4-34.6c0.7-6.4,1.3-12.9,2-19.3
		c0.6-5.3,1.3-10.5,1.9-15.8c0.8-8.4,1.5-16.9,2.4-25.3c1.2-11.9,2.5-23.8,3.8-35.7c0.4-3.6,0.7-7.3,1.1-10.9
		c1.2-10,2.5-20.1,3.8-30.1c1.3-10.2,2.6-20.4,3.7-30.6c0.6-5.1,0.8-10.2,1.1-15.3c-1,1.4-1.5,3-1.8,4.6c-0.8,5.2-1.5,10.5-2.3,15.7
		c-1.6,10.5-3.3,21-4.7,31.5c-1.8,13.2-3.5,26.3-5,39.5c-1.5,12.7-2.8,25.4-4.2,38.1c-1.3,11.4-2.6,22.8-3.9,34.1
		c-0.4,3.5-0.8,6.9-1.3,10.4c-1.2,9.7-2.4,19.4-3.6,29.1c-0.7,5.8-1.5,11.6-2.2,17.4c-0.5-4.4-0.1-8.6,0.2-12.9
		c0.5-8.8,0.8-17.6,1.3-26.4c0.4-6.8,0.8-13.6,1.2-20.4c0.9-14.3,1.8-28.5,2.7-42.8c0.5-7.8,0.8-15.6,1.2-23.4
		c0.3-5.3,0.7-10.6,1-15.9c0.6-9.8,1.2-19.6,1.8-29.3c0.3-5,0.7-9.9,0.9-14.9c0.1-4.1,0-8.3,0-12.4c-1.1,2.8-1.5,5.7-1.9,8.6
		c-1,8.6-2.1,17.1-3.1,25.7c-0.6,5.3-1.2,10.5-1.8,15.8c-0.8,6.8-1.6,13.5-2.3,20.3c-1.1,9.9-2.2,19.8-3.4,29.7
		c-1.1,9.6-2.4,19.1-3.6,28.7c-1.1,8.4-2.2,16.8-3.3,25.2c-1.2,8.4-2.5,16.7-3.8,25.1c-0.9,5.9-2,11.7-3,17.6
		c-0.3-8.1,0-16.2,0.6-24.3c0.8-10.6,1.8-21.2,2.7-31.8c0.8-9.3,1.5-18.5,2.2-27.8c0.3-3.8,0.6-7.6,1-11.4
		c0.9-8.3,1.8-16.5,2.7-24.7c0.5-4.6,0.9-9.3,1.4-13.9c0.8-6.4,1.7-12.8,2.5-19.2c0.8-6.9,1.4-13.9,2.3-20.8
		c1.2-9.7,2.5-19.4,3.8-29.1c0.9-6.4,1.8-12.8,2.6-19.2c0.1-0.5-0.3-1.1-0.4-1.6c-1.1,1.9-1.5,3.7-1.8,5.6c-1.5,8.3-3.1,16.6-4.4,25
		c-1.3,8.2-2.3,16.4-3.4,24.6c-1.3,9.2-2.5,18.4-3.8,27.6c-0.5,3.5-0.8,6.9-1.3,10.4c-1.2,9.2-2.5,18.4-3.6,27.6
		c-0.9,7.7-1.4,15.5-2.2,23.3c-1,10.2-2,20.5-3,30.7C744.4,200.9,744.1,206.4,743.7,211.8z"/>
	<path d="M716.2,320.1c-0.1-0.9-0.1-1.9,0-2.8c0.6-5.8,1.1-11.6,1.7-17.3c1.4-13,2.8-25.9,4.3-38.9c0.3,0,0.7,0,1,0.1
		c-0.4,10.6-0.9,21.2-1.3,31.7c-0.3,9.2-0.6,18.3-1.6,27.5c1.7,0.1,3.4,0.3,5.2,0.5c0.2-5.2,0.4-10.4,0.7-15.5
		c0.6-11.6,1.5-23.2,1.7-34.9c0.3-15.7,0.2-31.3,0.3-47c0-1.6,0.2-3.3,0.5-4.9c1.1-7.4,2.1-14.8,3.4-22.1
		c1.7-10.1,3.6-20.2,5.4-30.4c0.2-1,0.3-2,0.5-2.9c1.2-7.7,2.4-15.4,3.6-23.1c1.4-8.5,3-17,4.4-25.5c0.1-0.5-0.2-1.1-0.3-1.6
		c-7.2,25.3-11.9,50.9-17.4,76.5c-0.3-1.2-0.3-2.3-0.3-3.4c-0.2-15.3-0.5-30.6-0.7-45.9c-0.4-22.3-0.7-44.5-1-66.8
		c-0.2-12.5-0.1-25-0.4-37.5c-0.1-3.2-0.7-6.4-1.1-9.7c-0.8,9.5-1.3,19-1.6,28.4c-0.2,5.5-0.1,11-0.1,16.5c0,25.8,0,51.6,0.1,77.4
		c0,6,0.5,11.9,0.5,17.9c0,5.3-0.4,10.6-0.4,16c0,7.3,0.3,14.6,0.5,21.9c0.1,4.3,0.5,8.7,0,13c-0.8,7.2-2.1,14.4-3.2,21.6
		c-0.2,1.4-0.8,2.7-1.3,4.1c-0.1-11.5,0.5-22.7,0.8-34c0.4-12.3,0.7-24.6,0.8-36.9c0.1-12.5,0.1-24.9,0-37.4
		c-0.1-8-0.5-15.9-0.7-23.8c-0.4-22.3-0.8-44.6-1.3-66.9c0-1.4-0.2-2.8-0.4-4.2c-0.4,0-0.8,0.1-1.2,0.1c-0.1,1.1-0.3,2.3-0.3,3.4
		c-0.3,37.1-0.6,74.3-1,111.4c-0.2,16-0.6,32-1.1,47.9c-0.6,17.8-1.3,35.6-2.1,53.4c-0.2,5.6-0.6,11.3-1.2,16.9
		c-1.2,11.1-2.4,22.1-4,33.1c-0.6,4.4-0.8,9-2.5,13.4C708.9,319.5,712.5,319.8,716.2,320.1z"/>
	<path d="M821.6,259.3c-1.9,6.7-4,13.4-6.1,20c11.2-55.1,19.5-110.7,26.8-166.4c-0.9,2.1-1.5,4.3-2,6.6c-1.4,6.5-3,12.9-4.2,19.4
		c-2.3,12.9-4.4,25.8-6.7,38.7c-1.4,7.8-3,15.6-4.4,23.5c-2.2,12.2-4.1,24.6-6.6,36.7c-4,19.3-8.3,38.6-12.7,57.9
		c-2,8.6-4.5,17-7,25.4c-0.9,2.9-2,5.8-3.1,8.7c3.1,0.5,6.3,1,9.5,1.6c22.9-73.5,41.5-147.7,58.2-222.4c0,4.5-0.4,9-0.9,13.4
		c-1.8,14.6-3.7,29.3-5.7,43.9c-1,7.9-2.3,15.7-4.9,23.3c-3.1,8.8-5.5,17.8-8.3,26.7c-2.9,9.3-5.8,18.7-8.8,28
		c-1.6,5.1-3.4,10.1-4.9,15.2c-4.9,15.9-9.7,31.8-14.5,47.6c-2.5,8.1-5,16.3-7.7,24.7c2,0.3,4.1,0.7,6.1,1.1
		c11.9-39.9,23.8-79.3,35.6-118.8c0.2,1.5,0.3,3,0.1,4.4c-0.8,5.2-2,10.4-2.6,15.7c-1,8.8-2.4,17.4-5.1,25.8
		c-6.4,20.6-12.4,41.3-20.5,61.4c-1.6,3.9-2.9,7.9-4.4,12c4.6,0.8,9.3,1.7,14,2.6c0.8-1.8,1.4-3.4,1.9-5c3.3-13,6.8-26,9.7-39.2
		c2.3-10,3.9-20.2,5.7-30.3c1.2-6.7,2.1-13.4,3.6-20c2.7-11.5,5.8-22.8,8.6-34.3c3.6-15,7.1-30,10.7-45c0.6-2.4,1.2-4.9,1.8-7.3
		c-0.7,11.8-2,23.5-3.4,35.2c-0.9,7.7-1.9,15.5-3,23.2c-1.5,10.2-3.1,20.3-4.8,30.5c-1.8,10.6-3.4,21.3-5.7,31.8
		c-2.8,12.9-6.2,25.8-9.5,38.6c-1.6,6.1-4.1,11.9-8,17c-1.2,1.6-2,3.6-3,5.6c3,0.6,5.9,1.2,8.9,1.8c2.6-3.9,6-7.2,5-12.4
		c-0.1-0.7,0.4-1.6,0.7-2.4c1.2-2.8,2.3-5.5,3.5-8.2c3.9-8.6,8.1-17.2,11.7-25.9c5.7-13.8,11.3-27.7,16.5-41.7
		c6.7-17.9,13.3-35.8,19.3-53.9c6-18,11.2-36.2,16.6-54.3c3.9-12.9,7.2-25.9,9.7-39.1c0.3-1.5,0-3.1,0-4.6
		c-19.1,67.4-41.9,133.4-70.3,197.4c-0.2-0.6-0.3-1.1-0.2-1.5c2.5-12,5.1-24,7.5-36.1c1.7-8.6,3.1-17.3,4.3-26
		c1.3-8.9,2.2-17.8,3.3-26.7c0.9-7.7,1.9-15.5,2.8-23.2c0.8-7.3,1.4-14.5,2.2-21.8c0.9-8.1,1.8-16.2,2.7-24.2
		c0.9-8.1,0.8-16.3,3.6-24c0.2-0.5,0.3-1,0.4-1.4c3.2-15.1,6.4-30.2,9.5-45.3c1-4.6,1.7-9.3,2.5-14c-0.3-0.1-0.6-0.1-1-0.2
		c-3.6,14.4-7.1,28.7-10.7,43.1c-0.4-3.6-0.1-7.2,0.1-10.7c0.3-3.8,0.4-7.6,0.7-11.4c0.2-3.6,0.9-7.3,0.8-10.9
		c-0.2-3.6,1.3-7.4-0.4-11.7c-0.6,4.2-1.1,7.6-1.5,11c-0.8,8.1-1.4,16.2-2.3,24.3c-0.8,7.9-2.1,15.8-2.6,23.7
		c-0.5,8.2-1.7,16.2-4,24c-0.6,2-1.3,3.8-2,5.8c0,0.1,0,0.2,0,0.2c0,0-0.1,0.1-0.1,0.1c-0.3,2.1-0.5,4.1-0.9,6.2
		c-1.7,7.9-3.4,15.9-5.4,23.7c-2.6,10.1-5.4,20.1-8.7,30.1c0.6-5.4,0.6-10.9,1.8-16.1c2.1-8.7,5-17.2,7.5-25.7
		c1.7-5.7,3.3-11.4,5-17.1c0.1-0.4,0.4-0.7,0.7-1.1c0-0.1,0-0.1,0-0.2c0-0.1,0-0.1,0.1-0.2c0.4-8.9,0.7-17.8,1.1-26.6
		c0.1-2,0.5-3.9,0.6-5.9c0.1-3.1,0-6.3,0-9.4c-1.2,3.8-2.2,7.6-2.6,11.5c-1.1,10-1.1,20.2-4.1,30c-0.2,0.6-0.1,1.3-0.1,2
		c-0.2,5.1-2.5,9.5-4.5,14c0.2-4.5,0.7-8.9,1.1-13.4c1.2-11.4,2.4-22.8,3.4-34.2c0.5-5.8,0.8-11.6,1.2-17.4
		c0.3-4.3,0.5-8.7,1.3-12.9c1.8-9.6,4.1-19.1,6.1-28.7c0.7-3.2,1-6.5,1.4-9.8c-1.6,3.1-2.6,6.2-3.2,9.5c-1.5,8.1-5.5,15.6-6.4,23.9
		c-0.3,2.6-0.5,5.3-1.1,7.9c-2.5,11.2-5.1,22.3-7.8,33.4c-5.3,21.9-10.7,43.8-16.2,65.7c-4.3,17.1-8.6,34.1-13,51.1
		C827.5,237.6,824.6,248.5,821.6,259.3z M828.1,324.8c-0.4-4.9,2-14.2,5.6-21.8C832.5,310.1,831,317.2,828.1,324.8z"/>
	<path d="M819,141.6c-2.8,15-5.3,30-8.2,45c-3.2,16.6-6.5,33.2-10.2,49.7c-3.5,15.5-7.7,30.9-11.3,46.4c-3.4,14.7-6.4,29.5-8.5,44.8
		c2,0.3,4,0.6,6.1,0.9c0.1-1.5,0.2-3,0.5-4.4c4.2-19.1,8.5-38.2,12.7-57.3c3.7-17.2,7.2-34.4,11-51.6c3.7-16.3,7.8-32.6,11.7-48.9
		c3.3-13.7,6.4-27.5,9.7-41.2c1.2-5,2.4-10,3.7-15c1.2-5,2.5-10,3.7-14.9c0.1-0.4-0.2-0.9-0.5-2.4c-7.4,19.3-11.3,38.7-17.1,57.5
		c-0.1-1.4,0-2.7,0.2-4c0.8-4.4,1.7-8.8,2.5-13.2c1.9-11.1,3.8-22.2,5.6-33.3c1.1-6.7,2.3-13.4,3.4-20.1c1.5-9.3,2.9-18.7,4.4-28
		c1.5-9.2,3.1-18.3,4.5-27.5c0.3-1.7,0-3.5,0-5.3c-0.2,0-0.4,0-0.5,0c-0.9,4.5-1.9,9-2.7,13.6c-2.3,12.2-4.7,24.4-7,36.6
		c-2.7,14.5-5.4,29-8.1,43.6C822.7,122.4,820.8,132,819,141.6z"/>
	<path d="M1027,202c-6.1,13.3-12.6,26.4-19,39.5c-4.7,9.5-9.6,19-14.6,28.3c-5.5,10.2-11.2,20.4-17,30.5
		c-4.6,8.1-9.9,15.8-14.4,23.9c-6.9,12.5-15.9,23.2-26.4,32.8c-1,1-1.8,1.6-2.6,1.9c3.7,1,7.4,1.9,11.2,2.9
		c-0.1-1.2,0.5-2.3,1.2-3.3c5.3-7.4,10.7-14.8,16-22.2c4.6-6.3,9.5-12.4,13.8-18.9c9.1-13.9,18-27.9,26.8-42
		c4.8-7.7,9.4-15.7,13.8-23.7c7.5-13.7,14.9-27.5,22-41.4c6-11.7,11.6-23.6,17.2-35.4c4.4-9.3,8.6-18.7,12.7-28.2
		c4.5-10.5,8.9-21,13.3-31.5c-0.4-0.2-0.7-0.4-1.1-0.6c-11.6,24.1-23,48.2-35,72.1c-11.9,23.8-24.5,47.2-38.7,69.8
		c14-29.3,27.9-58.6,40.5-88.6c18.7-44.7,34.6-86.1,34.5-91.5c-0.5,0.9-0.9,1.4-1.1,1.9c-10,24.2-19.8,48.6-30.1,72.7
		C1042.7,168.2,1034.9,185.1,1027,202z"/>
	<path d="M1058.5,251.3c-9.6,15.5-19.1,31.2-29.1,46.4c-8.8,13.3-17.9,26.4-27.5,39.1c-5.5,7.3-12,13.8-18.2,20.5
		c-3.8,4.1-7.8,7.8-12.1,12.1c5.5,1.5,11,3.1,16.6,4.7c0.1,0,0.2,0,0.2,0c0.9-2,1.2-3.6,2.1-4.7c3.2-4,6.5-8,9.9-11.9
		c4.4-5.2,8.7-10.6,13.4-15.4c15.9-15.9,30.7-32.7,44.6-50.4c1.6-2,3.3-4,4.9-6c-19.7,32.8-41.7,63.8-71.3,89.4
		c4.6,1.1,8.9,2.2,13.3,3c1.1,0.2,2.6-0.6,3.5-1.4c3-2.8,6-5.8,8.8-8.8c12.1-13,24.5-25.8,36.2-39.2c12.8-14.6,25.4-29.5,37.4-44.7
		c14.7-18.7,29.1-37.6,43-56.8c11.8-16.2,22.9-33,34.3-49.6c1-1.4,1.5-3.1,2.2-4.7c-16.7,21.5-32.8,43.2-48.8,64.9
		c-14.9,20.2-47.5,59.6-52.3,62.8c21.5-28.9,40.1-59,57.2-90c21.3-38.4,43.5-88.9,44.5-95.8c-0.3,0.2-0.7,0.2-0.8,0.5
		c-3.1,6.3-6.1,12.5-9.1,18.8c-7.1,14.8-14,29.7-21.5,44.4c-6.4,12.6-13.3,24.9-20.5,37.1c-10.2,17.1-20.6,34.1-31.5,50.8
		c-8.3,12.7-17.4,24.7-26.3,37c-1.9,2.6-4.1,5-6.1,7.4c-0.2-0.1-0.4-0.3-0.6-0.4c0.5-0.8,0.9-1.6,1.4-2.4c5.3-8.2,10.8-16.4,16-24.7
		c5.6-8.9,11-17.8,16.4-26.8c6.1-10.3,12-20.6,18.1-31c3.7-6.3,7.4-12.6,11-18.9c8.6-14.6,17.4-29.1,25.6-44
		c7-12.6,13.3-25.7,19.8-38.5c1.4-2.7,2.6-5.4,2.5-8.7c-5.3,9.7-10.7,19.4-16,29.2c-0.4-0.9-0.2-1.5,0.1-2.1
		c7.5-16.3,15.1-32.5,22.6-48.8c1.1-2.4,2.3-5,2.2-8.8c-0.9,1.8-1.4,2.6-1.8,3.5c-4.5,9.2-9,18.5-13.6,27.7
		c-6.9,13.8-13.9,27.5-21,41.3c-3.3,6.5-6.7,13-10.2,19.4c-5.6,10.2-11.1,20.4-16.9,30.5c-5.4,9.3-10.6,18.8-16.7,27.7
		c-8.8,12.9-17.9,25.6-27.3,38c-7.7,10.2-16.1,19.9-24.2,29.8c-0.4,0.5-1,0.7-2.4,1.6c7-11.2,13.5-21.4,19.8-31.7
		c7.7-12.6,15.4-25.2,22.7-38c7.8-13.6,15.3-27.3,22.6-41.1c6.4-12.2,12.4-24.6,18.6-36.9c7.9-15.9,16-31.7,22.5-48.3
		c0.4-1.1,0.7-2.2,1-3.3c-1.7,1.9-2.8,3.9-3.9,6c-6.6,13-13,26.2-19.9,39.1c-10.5,19.6-21,39.2-32,58.6
		c-11.2,19.8-22.7,39.4-34.5,58.8c-7.2,11.9-15.2,23.4-22.9,35c-2.5,3.8-5.3,7.5-7.9,11.2c9.7-17,20.2-33.4,30.5-50
		c10.4-16.8,21-33.5,30.4-50.9c9.4-17.2,18.8-34.4,28.4-51.5c9.7-17.1,25.5-48.6,26.3-53.3c-5.5,9.4-10.9,18.2-15.9,27.1
		c-6.7,11.8-13.1,23.9-19.8,35.7c-7.5,13.1-15.1,26.2-22.8,39.2C1075.5,223.9,1067,237.6,1058.5,251.3z"/>
	<path d="M1048.4,217.8c-11.2,22.1-22.6,44-35,65.4c-9.2,16-18.5,31.9-29.2,47c-4.7,6.6-9.8,13-15.1,19.2
		c-4.6,5.4-9.5,10.5-15.4,15.1c4.7,1.3,9.5,2.6,14.4,3.9c0.8-1.2,1.5-2.2,2.2-3.1c1.8-2.2,3.6-4.3,5.4-6.5c1.7-2.2,3.3-4.6,5.1-6.8
		c2.3-2.8,4.9-5.4,7.1-8.4c10.9-15.1,22-30.1,32.5-45.4c9.9-14.4,19.3-29.1,28.5-43.9c6.5-10.4,12.4-21.2,18.6-31.8
		c10.8-18.3,20.8-37,30.3-56.1c0.4-0.8,0.7-1.7,1-2.6c-22.4,36.9-43.8,74.3-68.4,109.6c1.8-4.1,3.9-8,5.9-12
		c6.4-13.1,13-26.2,19.1-39.4c4.9-10.7,9.4-21.6,13.7-32.6c5-12.7,9.5-25.5,14.4-38.2c4.9-12.7,10.2-25.2,15.3-37.9
		c0.6-1.5,0.9-3,1.3-4.6c-0.3-0.1-0.6-0.2-0.9-0.3c-1.6,3-3.1,5.9-5.1,9.7c0.8-7.6,4.5-13.6,4.6-20.5c-0.6,0.6-1.1,1.2-1.4,2
		c-3.8,11.3-7.5,22.6-11.2,34c-4.7,14.6-11.2,28.5-17.5,42.3C1062.1,190.2,1055.4,204.1,1048.4,217.8z"/>
	<path d="M322.4,363.2c-1.2-1.4-2.3-2.8-3.4-4.3c-4.7-6.5-8.5-13.6-12.5-20.6c-3.7-6.5-6.6-13.3-9.6-20c-4.1-9-7.2-18.4-10.7-27.7
		c-6.1-16.2-10.4-32.9-14.8-49.6c-3.3-12.8-5.7-25.8-8.5-38.8c-3.3-14.7-5.5-29.6-6.9-44.7c-0.2-2.1-0.4-4.3-2.5-6.7
		c-0.1,2-0.4,3.1-0.3,4.2c0.3,4.6,0.6,9.3,1,13.9c0.3,3.8,0.6,7.6,1.1,11.4c0.6,4.9,1.3,9.7,2.1,14.6c1.4,8.2,2.6,16.3,4.3,24.4
		c2.5,11.8,5.3,23.6,8.3,35.3c2.8,10.9,5.2,21.8,9.4,32.3c0.2,0.5,0.2,1,0.4,1.4c2.9,8.8,5.4,17.7,8.7,26.3
		c2.4,6.5,6.1,12.4,8.7,18.9c4.2,10.4,10,19.8,16.4,28.8c0.8,1.2,1.7,2.4,2.5,3.6c2.3-0.7,4.7-1.4,7-2.1
		C322.8,363.7,322.6,363.4,322.4,363.2z"/>
	<path d="M1127.6,251.6c-12,15.9-24.3,31.6-36.7,47.2c-8.3,10.6-16.9,21-25.4,31.4c-7.6,9.2-14.7,18.9-24.3,26.3
		c-7,5.4-13.9,10.9-20.8,16.3c-2.5,2-5,4.2-7.5,6.2c0.1,0.3,0.2,0.7,0.3,1c2.2,0.3,4.6,0.1,6.5,1c2.2,1.1,4.3,2.2,6.5,2.1
		c2.1-2.3,3.8-4.3,5.6-6.2c5.9-6.5,11.7-13.1,17.7-19.6c5.7-6.2,11.5-12.5,17.4-18.6c11.8-12.2,23.7-24.3,35.5-36.4
		c1.3-1.3,2.6-2.6,3.9-3.8c-10.6,16.1-22.7,30.9-35.1,45.4c-12.6,14.6-25.9,28.4-41.4,40.9c3,1,5.5,1.8,7.4,2.5
		c8.3-7.9,16-15.4,23.9-22.8c10.3-9.7,20.7-19.2,30.9-28.9c5.9-5.6,11.7-11.4,17.4-17.2c14.1-14.4,28.3-28.7,42.1-43.4
		c11.1-11.8,21.6-24,32.3-36c0.8-0.9,1.7-1.6,2.5-2.3c-4.7,8.3-9.7,16.1-15,23.7c-7.3,10.3-14.8,20.4-22.5,30.5
		c-4.7,6.2-9.8,12.2-14.9,18.1c-6.5,7.6-13,15.1-19.8,22.4c-14.4,15.5-29.8,30-46.3,43.3c-6.8,5.5-14,10.4-21.2,15.7
		c2.4,1.8,5.3,2.7,7.8,2.9c2.1-1.9,3.8-3.5,5.6-4.9c5.7-4.2,11.6-8.4,17.4-12.6c15.8-11.4,30.6-24,45.1-36.9c10.3-9.2,20-19,30-28.6
		c0.9-0.9,1.8-1.7,2.7-2.5c0.2,0.9-0.1,1.5-0.5,1.9c-4.1,5-8.1,10.1-12.3,15.1c-8.7,10.3-17.5,20.5-26.4,30.6
		c-7.1,8-15.3,14.8-23.6,21.5c-7.6,6.2-15.2,12.4-24,16.9c-1.3,0.7-2.4,1.6-4.3,3c4.3,1.5,7.9,2.8,11.4,4c0.6,0.2,1.2,0.4,1.9,0.6
		c1.3-0.9,2.4-1.6,3.5-2.3c13.8-8,27.1-16.7,39.9-26.2c17.5-13.1,33.7-27.6,49-43.2c8.5-8.6,17-17.3,25.6-25.9
		c3.5-3.5,7.5-6.6,11-10.1c12.9-13,25.9-25.9,38.3-39.3c9.7-10.6,18.8-21.9,27.8-33.2c7.6-9.4,14.1-19.7,20.4-30
		c1.5-2.5,4-4.6,3.8-7.9c2.8-2.1,3.5-5.3,4.6-8.3c-2.3,2.3-3.8,5.1-4.6,8.3c-1,1-2.2,1.9-3.1,3.1c-3.3,4.7-6.5,9.7-9.9,14.4
		c-4.9,6.7-9.8,13.4-15,19.9c-5.3,6.6-10.8,13-16.4,19.4c-4.7,5.4-9.5,10.7-14.3,16c-2.5,2.7-5.1,5.2-7.7,7.8
		c-0.2-0.9,0-1.3,0.3-1.7c13.1-15.9,25.8-32.1,37.8-48.9c4.9-6.9,9.9-13.7,14.7-20.8c5.1-7.6,10-15.3,14.9-23
		c3.6-5.7,8.3-10.7,10.8-17.1c1.1-2.8,3.9-5,3.6-9c-2.2,2.9-4.3,5.1-5.7,7.7c-2.1,3.7-5,6.5-8.1,9.2c-1.9,1.6-3.8,3.2-5.5,5.1
		c-6.7,7.6-13.3,15.3-19.9,23c-11.1,12.8-21.9,25.8-33.2,38.5c-15.8,17.8-31.7,35.5-47.9,52.9c-11.3,12.2-23.1,23.9-34.7,35.9
		c-0.7,0.7-1.5,1.3-3,2.6c0.5-1.3,0.6-1.7,0.8-1.9c7.7-9.8,15.5-19.5,23.2-29.3c2.5-3.1,4.7-6.5,7.5-9.3
		c13.8-14.4,27.8-28.6,41.7-42.9c6.9-7.2,13.9-14.4,20.5-21.8c11.4-12.8,22.6-25.8,33.8-38.7c4-4.6,8-9.3,11.9-14.1
		c1-1.3,1.7-2.8,2.6-4.2c-7,6.4-13.4,13.1-19.7,20c-8,8.7-15.8,17.6-23.9,26.2c-6.6,7-13.5,13.8-20.2,20.7
		c-8.1,8.3-16.3,16.7-24.4,25c-0.8,0.8-1.8,1.4-3.6,2.7c4.2-6.3,7.8-11.5,11.1-16.9c9-14.5,18.3-28.9,26.8-43.7
		c8-14,14.5-28.7,19.9-43.9c0.5-1.3,0.7-2.7,1-4c-1.3,1.1-1.9,2.4-2.6,3.8c-2.7,5.9-5.3,11.8-8.1,17.7
		c-8.4,17.9-18.9,34.7-29.6,51.4c-4.7,7.4-9.6,14.8-14.5,22.1c-4.6,6.9-9.2,13.8-14.1,20.5c-4.9,6.9-9.6,14-15.9,19.8
		c-4.6,4.3-9.1,8.8-13.7,13.1c-14.5,13.7-29,27.4-43.5,41.1c-0.6,0.6-1.4,1-2.1,1.6c4.5-6.1,9.5-11.6,14.3-17.2
		c8.5-10.2,17.3-20.2,25.3-30.8c13.7-18.2,26.5-37,37.8-56.9c2.5-4.5,4.9-9.2,8-13.2c8.2-10.7,16.7-21.1,25.1-31.6
		c8.4-10.5,16.6-21.1,23.7-32.6c0.7-1.2,1.2-2.5,1.8-3.7c-2.8,2.6-4.8,5.7-7,8.6c-2.3,3.1-4.7,6-7.1,9c-2.3,2.8-4.6,5.6-7,8.5
		c-2.3,2.8-4.6,5.6-7,8.4c-2.4,2.9-4.6,6.1-7.3,8.8c-2.4,2.4-3.7,5.9-7.1,7.6c3.3-8,6.4-15.8,9.7-23.5c5.4-12.4,9.4-25.2,12.3-38.3
		c0.8-3.5,1-7.1,1.5-10.7c-1.3,2.4-2.3,4.7-3,7.1c-1.5,5.4-2.7,11-4.4,16.3c-5.8,18.3-13.9,35.6-22.3,52.7c-2.5,5-5.3,10-8.6,14.5
		c-4.2,5.6-9,10.6-13.7,15.8c-3.8,4.2-7.6,8.3-11.5,12.5c-9.8,10.7-19.4,21.4-29.3,32c-8.1,8.6-16.5,16.9-24.8,25.3
		c-7.3,7.3-14.5,14.6-21.9,21.8c-1.6,1.6-3.3,2.9-4.9,4.4c2.6-4.4,5.6-8.2,8.7-12.1c10.6-13.7,20.9-27.5,30.4-42
		c4.8-7.4,9.9-14.6,15.7-21.2c5.5-6.2,10.7-12.7,15.8-19.3c6.3-8.1,12.5-16.4,18.4-24.8c7.1-10,14.1-20.1,21-30.3
		c3.4-4.9,6.5-10,9.5-15.2c5.9-10.2,11.6-20.5,17.4-30.7c0.3-0.5,0.2-1.3,0.2-1.7c-10.9,16.8-22,33.6-32.9,50.4
		c-8.8,13.6-32.8,45.3-37,48.2c0.6-1.2,0.8-1.9,1.2-2.6c6.6-10.8,12.2-22.1,17.7-33.4c2.8-5.7,5.4-11.4,8.7-16.8
		c7-11.3,14.3-22.4,21.6-33.5c2.5-3.9,5.4-7.6,7.8-11.5c3.3-5.3,6.5-10.8,9.6-16.2c0.9-1.5,2.2-3,2-6.2c-3.2,4.6-5.7,8.3-8.2,12
		c-7.7,11.2-15.4,22.5-23.1,33.7c-8.7,12.7-17.3,25.6-26.3,38.1C1156.7,212.3,1142.3,232.1,1127.6,251.6z M1162.6,319
		c9.9-10,19.8-20.2,29.4-30.5c9-9.8,17.6-19.9,26.4-29.9c7.3-8.4,14.8-16.6,22-25.1c7.6-9,15-18.2,22.6-27.2
		c7.3-8.8,14.8-17.5,22.1-26.3c3.9-4.8,7.3-9.8,11-14.7c0.7-0.9,1.5-1.7,2.2-2.6c0.3,0.3,0.5,0.5,0.8,0.8c-3.7,5.5-7.4,11-11.2,16.3
		c-5.8,8.3-11.7,16.6-17.8,24.7c-6.8,9.2-13.9,18.2-20.9,27.2c-5.9,7.4-11.8,14.8-17.9,22.1c-6.2,7.6-12.5,15.1-18.9,22.5
		c-8.7,9.9-17.4,19.6-26.3,29.3c-7.2,7.9-15.1,14.9-23.7,21.3c-5.2,3.9-9.9,8.3-15,12.4c-5.4,4.4-11,8.5-17.2,12.3
		c0.6-0.8,1.1-1.7,1.7-2.4C1142.2,339,1152.5,329.1,1162.6,319z M1168.8,205.4c-6.3,10.7-12.5,21.5-18.8,32.2c-3,5-6.2,9.9-9.5,14.6
		c-2.6,3.8-5.3,7.6-8.4,11.1c-8.6,9.7-17.3,19.3-26,28.9c-3,3.3-6.3,6.4-9.7,9.3c25.3-32.2,49.7-65.2,73.5-98.6
		C1169.5,203.8,1169.2,204.7,1168.8,205.4z"/>
	<path d="M934.7,241.9c-6.7,14.7-13.6,29.2-20.7,43.7c-6.6,13.3-13.5,26.3-20.3,39.5c-2.6,5-5.2,10-7.8,15.1
		c-1.4,2.7-2.9,5.1-5.2,6.2c2.6,0.6,5.2,1.2,7.8,1.8c1.2-1.5,2.3-3.1,4.8-3.5c-1,1.4-1.9,2.6-2.9,3.9c2.4,0.6,4.8,1.1,7.2,1.7
		c1.3-3.7,4.1-6.3,5.8-9.5c2.1-3.8,4.5-7.4,6.7-11.1c2.3-3.9,4.4-7.8,6.5-11.8c2-3.6,3.8-7.3,5.7-11c0.3,0.2,0.6,0.3,0.9,0.5
		c-7.2,14.4-13.5,29.3-21.9,43.8c9.3,2.2,18.7,4.6,28.3,7c-0.5-0.3-1-0.8-1.5-1.3c1.8-2.2,3.5-4.4,5.4-6.5
		c15.8-16.7,29.3-35.3,42-54.4c7.5-11.4,14.4-23.1,20.9-35.1c9-16.5,17.4-33.3,24.9-50.5c8.1-18.4,15.1-37.2,22.2-56
		c9.1-24.3,16.8-49,24.2-73.8c0.5-1.6,0.5-3.2,0.8-4.9c-1.1,0.4-1.3,0.9-1.5,1.5c-1.4,4.4-2.8,8.9-4.3,13.3
		c-4.4,12.9-8.8,25.8-13.5,38.5c-5.9,16-11.8,32.1-18.2,47.9c-5.5,13.7-11.5,27.3-17.7,40.6c-6.5,13.8-13.2,27.6-20.6,41
		c-6.9,12.5-14.6,24.6-22.2,36.6c-4.3,6.7-9,13.1-13.7,19.6c-2.2,3.1-4.7,6-7.1,9c2.8-6.4,6.3-12.4,9.6-18.5c3.8-7,7.7-14,11.3-21.1
		c6.4-12.9,12.7-26,18.9-39c3.5-7.4,6.9-14.7,10.1-22.2c4.6-10.8,9.1-21.8,13.5-32.7c3.9-9.5,7.7-19.1,11.4-28.7
		c3.8-10.1,7.5-20.2,11.2-30.4c0.8-2.3,1-4.7,1.5-7.1c-2.5,4-4.3,8.2-6.1,12.5c-6.4,15.7-12.7,31.4-19.3,47
		c-5.9,13.9-12,27.7-18.2,41.5c-7,15.3-14,30.5-21.6,45.5c-10.6,21.1-22,41.8-35,61.5c-4.9,7.5-10,14.9-16.4,21.3
		c-0.7,0.7-1.7,1.2-2.5,1.9c0-1.8,0.3-3.3,1.2-4.3c8.5-10.3,15.1-21.8,22.1-33.1c5.6-9,10.8-18.3,15.9-27.7
		c7.5-13.9,14.8-27.9,21.8-42c6-12.2,11.7-24.6,17.3-37c7.5-16.6,14.7-33.3,21.9-50.1c3.7-8.7,7.3-17.5,10.7-26.3
		c3.2-8.3,6.2-16.8,9.2-25.2c1.3-3.8,2.5-7.6,3.7-11.4c-1.8,1.6-2.8,3.4-3.6,5.4c-1,2.5-1.6,5.1-2.7,7.5
		c-3.7,8.9-7.6,17.7-11.4,26.5c-4.9,11.3-9.6,22.6-14.6,33.8c-7.6,16.8-15.2,33.6-23.2,50.2c-7.7,16-15.7,31.9-23.9,47.7
		c-5.4,10.5-11.3,20.7-17.2,30.9c-6.4,10.9-12.9,21.7-19.7,32.3c-4,6.1-8.7,11.7-13.1,17.5c-0.9,1.2-1.9,2.3-4.2,2
		c0.5-1.5,0.7-2.9,1.3-4.1c3.8-8,7.7-15.8,11.5-23.8c4.6-9.6,9.4-19.1,13.4-28.9c7.4-17.9,14.1-36.2,21.7-54.1
		C963,224,971,207.6,978.6,191c5.8-12.5,11.8-24.9,17.2-37.6c6.5-15.6,12.5-31.5,18.6-47.3c0.7-1.7,1.1-3.5,1.6-5.2
		c0.5-1.7,0.9-3.4,1.3-5.2c-14.3,33.6-29.4,66.6-45.8,99.3c-0.2-0.7-0.4-1.1-0.4-1.3c3.4-11.8,6.6-23.7,10.3-35.4
		c4.3-13.5,8.9-26.8,11.8-40.6c0.5-2.1,0.9-4.3,1.6-6.2c4.8-12.6,9.8-25.1,14.6-37.6c1.3-3.3,2.2-6.7,3.2-10
		c-0.3-0.1-0.6-0.2-0.9-0.3c-5.6,13.1-11.2,26.2-16.8,39.2c2.4-15.3,5.5-30.4,8.4-45.5c0.7-3.6,1.8-7.3,1.2-11
		c-2.6,10-4.9,20-7.3,29.9c-2.6,11.3-5.2,22.6-7.9,33.9c-1.4,5.6-2.4,11.5-4.5,16.8c-6.1,15.1-12.5,30-19,44.9
		C955.6,195.3,945.3,218.6,934.7,241.9z M896.2,338.2c2-2.8,4-5.6,6-8.4C901.5,333.5,899.5,336.3,896.2,338.2z M975.3,164.4
		c-6,19.4-13.4,38.2-21,56.9c-5.3,13.2-10.6,26.5-16.5,39.4c-3.4,7.5-7.8,14.7-12.1,21.8c-6.6,10.9-13.6,21.7-20.4,32.5
		c-0.2,0.3-0.5,0.5-0.7,0.7c26.4-51.9,49.6-105.1,72.4-158.6C976.5,159.6,976,162.1,975.3,164.4z"/>
	<path d="M910.6,215.6c-5,12.7-10.9,25-16.5,37.4c-7.8,17.4-15.6,34.9-23.7,52.2c-5.5,11.8-11.4,23.4-17.2,35.2
		c2,0.4,4.1,0.9,6.2,1.3c9.8-20.8,19.4-41.2,29-61.7c-3.1,11.1-6.4,22-11.4,32.3c-4.7,9.9-9.5,19.8-14.3,30c2.9,0.6,5.8,1.2,8.7,1.9
		c0.2-0.5,0.4-0.9,0.6-1.4c3.3-8.7,6.6-17.3,10-26c4.4-11.5,8.9-22.9,13.2-34.4c3.8-10.1,7.7-20.1,11.4-30.3
		c5.2-14.3,10.3-28.7,15.3-43.1c4.1-11.7,7.8-23.6,12.2-35.3c4.7-12.6,10-25,14.9-37.5c5.6-14.2,11.1-28.4,16.7-42.7
		c0.2-0.5,0-1.2,0-1.8c-4.9,6.5-7.3,14.1-10.6,21.3c-3.3,7-6.2,14.2-9.3,21.3c-0.1-2,0.6-3.7,1.1-5.4c2.5-8.4,4.9-16.9,7.5-25.3
		c4.3-14,8.7-27.9,13.1-41.8c0.4-1.2,0.3-2.6,0.5-3.9c-0.4-0.1-0.7-0.1-1.1-0.2c-9.8,29.5-19.6,59.1-29.5,88.6
		c2.2-11.6,6.2-22.8,8.2-34.5c-1.5,3.2-2.8,6.4-3.9,9.7c-3.8,11.5-7.5,23-11.3,34.5c-2.6,7.9-5,15.8-7.7,23.7
		C918.8,191.8,915.2,203.9,910.6,215.6z"/>
	<path d="M194.5,279.6c1,2.4,1.7,5,2.8,7.4c1.5,3.3,3.4,6.5,4.9,9.8c2.6,5.5,4.9,11.2,7.7,16.7c3.6,7,7.8,13.8,11.5,20.8
		c3.9,7.6,8.5,14.7,13.1,21.9c0.8,1.3,1.7,2.4,2.7,3.6c2.4,3.1,5,6.2,7.3,9.4c4.3,5.7,8.5,11.5,14.4,15.7c6-2.1,12-4.1,18.1-6.1
		c-1.2-0.4-2.4-1-3.5-1.6c-9.5-5.2-17.3-12.6-24.1-20.9c-7.1-8.8-14.1-17.5-20.2-27.1c-4.7-7.4-9.9-14.5-14.2-22.1
		c-6.4-11.5-13.4-22.9-17.9-35.4c-2.3-6.6-4.7-13.1-7.1-19.7c-1.3-3.4-2.7-6.7-4.4-11c-0.5,2-0.8,2.9-1,3.9
		c-4.6-5.7-5.9-13.4-11.3-18.6c0.3,2.5,0.8,4.9,1.7,7.2C181.5,248.7,188.1,264.1,194.5,279.6z"/>
	<path d="M256.8,139c1.2,4.3,2.6,8.5,3.9,12.8c2.9,9.9,5.6,19.8,8.5,29.6c1.8,6,3.6,12,5.5,17.9c2.4,7.6,4.9,15.1,7.4,22.6
		c1.9,5.7,3.8,11.3,5.8,16.9c5.1,14.2,10.6,28.3,15.3,42.6c1.9,5.8,4,11.4,6.1,17.1c3.7,9.9,7.9,19.6,12,29.4
		c2.4,5.8,5.1,11.5,7.6,17.2c2.1,4.7,4.4,9.3,6.5,14c0.1,0.3,0.3,0.6,0.3,0.9c2.3-0.7,4.5-1.3,6.8-2c-2.3-4.5-4.6-9.1-7-13.6
		c-7.1-13.8-12.5-28.4-18.4-42.7c-4.7-11.5-8.9-23.2-13.2-34.9c-3.5-9.5-7-18.9-10.3-28.5c-4.8-13.6-9.4-27.3-14-41
		c-5.3-15.9-10.4-31.8-15.6-47.7c-3-9.1-6-18.2-9.1-27.3c-0.7-2.1-1.8-4.1-2.6-6.1c-0.8,0.8-1.1,1.4-1,1.9
		C253.1,125.3,254.9,132.1,256.8,139z"/>
	<path d="M322.3,124.2c1.4,11.3,3.1,22.7,4.8,33.9c1.6,10.5,3.3,21,5.1,31.4c2.1,12.4,4.5,24.8,6.7,37.1c1,5.7,1.9,11.5,3,17.2
		c1.6,8.5,3.3,16.9,5,25.4c3.1,15.4,6.2,30.9,9.5,46.2c2.2,10.2,4.9,20.3,7.3,30.4c0.5,2,0.8,4.1,0.9,6.1c4.5-1.2,9-2.4,13.5-3.5
		c-7.2-29.2-12.7-57.8-18.4-86.6c2.7,0.3,1.3,1.8,1.6,2.7c1.8,7,3.7,14.1,5.4,21.1c2,8.6,3.8,17.4,5.8,26c1.8,7.7,3.9,15.3,5.9,23
		c0.9,3.5,1.8,7,2.5,10.6c0.2,0.8,0.2,1.6,0.2,2.4c2.1-0.5,4.2-1.1,6.3-1.6c-0.8-2.5-1.6-4.7-2-6.9c-1.2-8-4.1-15.5-5.2-23.5
		c-0.4-3.2-2.2-6.2-3-9.4c-3.8-14.6-7.5-29.2-11.1-43.9c-2.3-9.5-4.4-19.1-6.8-28.6c-4.5-17.7-8.9-35.4-13.7-53
		c-2.7-9.8-4.5-19.7-6.4-29.7c-2-10.7-3.5-21.6-5.3-32.4c-0.2-1.3-0.8-2.5-1.2-3.7c-0.4,6.4-0.2,12.7,0.6,19
		c0.9,7.4,2.5,14.7,3.6,22c1.7,11.4,3.2,22.9,5,34.4c2.7,16.7,5.4,33.4,8.4,50.1c2.3,13,5,26,7.5,39c2.4,13.1,4.4,26.4,7.8,39.3
		c0.3,1.3,0,2.8,0,4.1c-2.6-7.3-4.4-14.6-6.2-21.9c-0.5-1.9-1-3.8-1.4-5.8c-0.5-2.6-1-5.2-1.5-7.8c-0.5-2.3-1.2-4.5-1.6-6.8
		c-1.4-7.2-2.7-14.3-4.1-21.5c-2.2-11-4.5-22.1-6.7-33.1c-1.1-5.4-1.9-10.8-3-16.1c-1.3-6.7-2.7-13.3-4-20c-1.5-8.3-2.9-16.6-4.4-25
		c-0.9-4.9-1.8-9.8-2.6-14.7c-1.3-7.2-2.5-14.4-3.7-21.5c-0.6-3.9-1-7.8-1.7-11.6c-1.2-7.1-2.5-14.2-3.8-21.2
		c-0.9,0.9-1,1.7-0.9,2.5C320.8,107,321.3,115.6,322.3,124.2z"/>
	<path d="M226.2,264c2.9,9.7,5.7,19.4,8.9,29c2.5,7.3,6.1,14.3,8.4,21.7c2.5,8,6.8,15.1,10.3,22.6c4.4,9.3,9.8,18,15.6,26.4
		c1.5,2.2,3.4,4,5.2,5.9c2.4,2.5,4.8,4.8,7.3,7.4c6.5-2.1,13-4.3,19.7-6.4c-4-4.9-7.5-10.1-10.6-15.5c-2.5-4.3-5.2-8.6-6.9-13.2
		c-1.8-4.7-5.1-8.4-7-13.1c-3.4-9-8-17.5-11.6-26.4c-5.1-12.6-9.9-25.3-14.7-37.9c-1.9-4.9-3.7-9.9-5.4-14.9
		c-1.4-4.1-2.8-8.2-4.1-12.2c-2.4-7.1-4.6-14.2-7.2-21.2c-2-5.4-2.4-11.5-6.6-16.2c-0.1,0.6-0.3,1.1-0.2,1.5
		c1.6,6.6,3,13.2,4.8,19.8c2.2,8,4.7,15.9,7.2,23.8c2.2,6.8,4.5,13.5,6.9,20.2c1.9,5.5,4,10.9,6,16.3c2.4,6.4,4.7,12.7,7.1,19.1
		c2,5.2,4.3,10.4,6.3,15.6c1.2,3.2,1.8,6.7,3.2,9.8c2.1,4.7,4.5,9.1,7,13.6c5.3,9.6,10.6,19.1,16,28.6c0.4,0.7,0.9,1.3,1.5,2.2
		c-1.1,1-2,1.9-2.7,2.5c-6.8-0.6-10-5.9-13.9-9.7c-4-4-6.8-9.2-9.8-14.1c-1.9-3.1-3.2-6.6-5.2-9.6c-4.7-7.3-8.4-15.1-11.9-23
		c-1.7-3.8-3.4-7.5-4.9-11.4c-4.3-11.1-8.5-22.2-12.6-33.4c-1.6-4.3-2.7-8.9-4-13.3c-1.5-5-3-10.1-4.6-15.1c-0.6-1.7-1.6-3.3-2.3-5
		c-0.6-1.5-0.1-3.5-2.2-4.5c0,0.9,0,1.6,0.1,2.2C221.2,245.5,223.4,254.8,226.2,264z"/>
	<path d="M301.1,141.1c0.4,4.3,0.8,8.6,1.4,12.9c0.8,6.2,1.6,12.4,2.5,18.6c1.5,9.8,3,19.6,4.6,29.4c1.1,6.9,2.2,13.8,3.4,20.6
		c1.6,9,3,18,4.9,26.9c1.5,7.1,2.7,14.3,4.8,21.3c2.1,6.8,3.3,13.9,5.1,20.7c2.6,9.4,5.5,18.7,8.1,28c3.4,11.9,7,23.8,12.6,35
		c0.3,0.5,0.4,1.1,0.5,1.6c2.1-0.6,4.2-1.2,6.3-1.8c-0.4-0.9-0.9-1.8-1.3-2.6c-2.1-3.9-1.7-8.6-4.4-12.4c-1.5-2.1-2.5-4.7-3.3-7.2
		c-2.8-8.8-5.5-17.7-8.1-26.6c-3.1-11-6.1-21.9-9-33c-1.8-6.7-3.3-13.5-4.8-20.3c-1.5-6.8-2.9-13.6-4.2-20.5
		c-2.4-12.5-4.6-25.1-6.9-37.6c-1.7-9.3-3.6-18.6-5.1-27.9c-1.6-9.8-2.8-19.7-4.2-29.5c-0.4-2.4-1-4.9-1.7-7.3
		c-0.2-0.7-0.8-1.4-1.8-3c-0.2,1.9-0.3,2.7-0.3,3.5C300.5,133.9,300.7,137.5,301.1,141.1z"/>
	<path d="M163.9,272.1c3.4,6.1,6,12.6,9.5,18.6c4.3,7.2,9,14.2,13.8,21.1c6.6,9.7,13.2,19.4,20.2,28.9c8.1,11.1,16.5,22,25,32.8
		c3.8,4.8,8.3,9,12.6,13.4c0.6,0.7,1.3,1.3,2,1.9c2.1-0.8,4.3-1.5,6.4-2.3c-0.2-0.1-0.4-0.3-0.6-0.4c-3.9-3.6-7.5-7.3-11-11.3
		c-4.7-5.3-9.2-10.8-13.7-16.3c-3.3-4-6.5-8-9.6-12.1c-4.5-5.9-8.9-11.9-13.3-17.9c-4.6-6.3-9.3-12.5-13.8-18.8
		c-3.7-5.2-6-11.4-10.8-16c-0.6-0.5-0.7-1.5-1.1-2.2c-1-1.9-1.8-3.9-3-5.7c-5.5-8-9.4-16.8-13.6-25.5c-1.7-3.4-3.1-6.9-4.6-10.4
		c-2.1-4.8-4.1-9.6-6.1-14.4c0,3.2,0.4,6.3,1.5,9.1C157,253.9,159,263.5,163.9,272.1z"/>
	<path d="M88,289.1c-1.3-0.7-2.6-1.5-4.7-2.6c0.6,1.6,0.7,2.6,1.3,3.2c3.1,3.8,5.9,7.9,9.5,11.2c5.4,5.1,9.2,11.2,13,17.3
		c1.2,2,2.3,4,3.5,6c4.7,7.4,8.9,15.1,14.2,22c4.1,5.3,7.8,11,12.3,16c3.2,3.7,6,7.9,9.4,11.5c5.1,5.3,10.6,10.4,16.1,15.3
		c4.2,3.7,8.6,7.2,13.2,10.5c5.4,3.9,11,7.4,17.6,9c0.1,0,0.1,0,0.2,0c3.6-1.4,7.3-2.8,11-4.2c-0.7-0.1-1.4-0.1-2,0
		c-5,0.6-9.2-1.8-13.2-3.8c-8.3-4.3-16.2-9.4-22.8-16.2c-0.7-0.7-1.6-1.1-2.4-1.7c-1.4-1.1-2.9-2.2-4.1-3.5
		c-4.4-4.6-8.9-9.3-13.2-14.1c-3.4-3.8-6.8-7.7-10-11.6c-3.1-3.8-6.2-7.7-9.2-11.6c-3.2-4.3-6.3-8.8-9.3-13.1
		c1.1-1.9,2.1-1.5,3.1-0.5c5.9,5.8,11.8,11.6,17.8,17.4c1.9,1.8,4.1,3.3,6.1,5.1c6.2,5.7,12.4,11.6,18.6,17.3
		c5.8,5.4,11.3,11.1,17.6,15.9c7.5,5.6,14.7,11.9,23.6,15.5c1.8,0.7,3.4,1.7,5.1,2.7c8.3-3.1,16.8-6.2,25.5-9.4
		c-2.4-0.4-4.8-0.7-7.2-0.8c-4.3-0.2-8.1-1.8-12-2.9c-5-1.4-9.7-3.9-14.6-6c-1.2-0.5-2.3-1.3-3.4-2c-1-0.6-1.8-1.6-2.8-2
		c-6.8-2.1-11.7-7.2-17.5-10.7c-4.4-2.7-9.2-5.2-12.8-9.2c-0.9-0.9-2.2-1.4-3.4-2.1c-0.7-0.4-1.5-0.8-2-1.3
		c-6.2-6.2-12.3-12.4-18.5-18.6c-1.5-1.5-3-3-4.4-4.7c-6.2-7.7-12.2-15.6-18.7-23.1c-4.3-5-9.4-9.4-13.9-14.2
		c-5.1-5.6-10.1-11.4-15-17.2c-1.1-1.3-1.6-3.3-3.7-3.6c-1.4,1.1-1,2.3-0.4,3.6c1.2,2.5,2.2,5.1,3.5,7.6
		C89.9,287.2,89.3,288.1,88,289.1z M110.4,307c1.7,2,3.6,3.9,5.3,5.8c1.4,1.6,1.7,3.2,0.1,4.7c-7.6-7.1-15.1-14.2-17.9-24.9
		C102,297.4,106.2,302.2,110.4,307z"/>
	<path d="M81.4,403.9c2.9,2.1,6,4.1,9.1,6c5.5,3.3,10.9,6.8,16.7,9.4c4.9,2.2,9.5,5.1,14.7,6.9c5.1,1.7,10.2,3.4,15.3,5
		c10.5-4.4,21.9-9,34.1-13.8c-1.4-0.6-2.8-1.3-4.2-1.7c-5.1-1.4-9.8-3.5-14.5-5.9c-7.1-3.6-13.8-7.5-20.2-12.3
		c-6.6-4.9-12.8-10.1-18.9-15.6c-5.4-4.9-10.6-10-15.8-15.1c-2.1-2.1-4.3-4.2-6.2-6.5c-5.1-6.3-9.7-13-15.2-19
		c-7.3-8.1-12.5-17.5-18.9-26.2c-0.6-0.8-1.1-1.6-1.6-2.5c-3.9-6.7-7.8-13.4-11.6-20.1c-2.1-3.7-4.8-7-5.9-11.3
		c-0.3-1.2-1.2-2.2-1.8-3.4c0.3,3.8,1,7.5,2.5,10.9c3.2,6.9,6.8,13.6,10.3,20.4c5.9,11.3,12.6,22.1,20.2,32.3
		c5.4,7.3,10.7,14.6,16.9,21.3c4.9,5.2,9.3,10.8,14.3,15.8c6.3,6.1,12.9,11.9,19.6,17.7c9,7.8,19,14.2,29.5,19.8
		c2.2,1.2,4.5,2.1,6.7,3.3c0.6,0.4,0.8,1.4,1.6,2.9c-2.8,0-4.7,0.1-6.7,0c-3.1-0.2-6.2-0.7-9.3-0.8c-9.7-0.5-18.8-3.3-27.6-7.1
		c-3.9-1.7-7.2-4.9-11.2-5.9c-4.6-1.2-7.9-4.4-12-6.2c-4.7-2.1-7.9-6.6-12.7-8.6c-0.7-0.3-1.3-1.1-1.9-1.6
		c-5.4-4.9-10.6-10-16.3-14.5c-6.5-5.2-11.7-11.6-16.6-18.1c-6.3-8.3-12.2-16.8-18.2-25.3c-1.2-1.7-1.9-4-3.4-5.3
		c-2.7-2.4-4.6-5.1-5.9-8.5c-0.1-0.4-1.3-0.4-2.5-0.8c0.7,2.7,1.3,4.5,2.6,6.3c3.7,5.2,6.7,10.9,8.8,17.1c-1.4-0.9-2.4-2-3.4-3.2
		c-0.9-1-1.7-2-2.5-3.1c-3.8-4.9-7.6-9.7-11.3-14.6c-2.2-2.9-4.2-5.9-6.3-8.8c-0.2-0.3-0.8-0.2-2-0.4c0.8,2.1,1.3,3.8,2.2,5.2
		c3.4,5.3,6.7,10.6,10.4,15.6c5.7,7.9,11.4,15.9,17.6,23.4c9.1,11,19.5,20.8,30,30.5c2.6,2.4,5.5,4.6,8.4,6.8
		C72.8,397.3,77,400.7,81.4,403.9z"/>
	<path d="M1231.3,338.5c0.7-0.8,1.5-1.6,2.2-2.4c5-4.9,9.9-9.9,15.1-14.6c6.1-5.6,11.9-11.4,18.7-16.4c12.9-9.3,25.5-19.2,38-29
		c7.4-5.9,14.4-12.3,21.7-18.3c5.1-4.3,10.4-8.3,15.4-12.6c3.2-2.7,6.1-5.5,9.1-8.4c1.9-1.8,3.7-3.8,5.5-5.7
		c3.3-3.4,6.5-6.7,9.8-10.1c-0.3-0.4-0.7-0.7-1-1.1c-14.2,12-28,24.5-42.4,36.2c-14.6,11.9-29.6,23.3-45,34.2
		c1.5-2.6,3.3-4.9,5.2-7.1c9.5-10.7,18.4-21.9,26.3-33.7c5.6-8.4,11.1-16.9,16-25.7c4.1-7.4,7.1-15.3,10.6-23.1
		c0.4-0.8,0.1-1.8,0.2-2.8c-2.2,3.2-3.4,6.7-5.2,9.8c-6,10.4-12.1,20.7-18.3,30.8c-7.7,12.5-17.1,23.8-26.5,35
		c-8.1,9.7-16.7,19-25.1,28.3c-1.4,1.6-3.1,3.1-4.8,4.3c-12.7,9-25.5,18-38.3,27c-0.5,0.4-1.2,0.4-1.9,0.6
		c4.4-5.1,9.4-9.2,13.9-13.9c11.3-11.5,22.5-23.1,33.5-34.9c12.9-13.7,24.2-28.7,35.1-44c5.6-7.8,10.2-16.3,15.2-24.6
		c1.6-2.6,2.9-5.3,4.6-7.7c6.3-8.8,12.7-17.5,19-26.3c2.5-3.4,4.8-7,7.1-10.5c-0.3-0.2-0.6-0.5-0.9-0.7
		c-6.8,6.9-11.2,15.8-18.7,22.4c-0.4-1-0.7-1.6-1-2.5c-1.2,2.4-2.1,4.5-3.2,6.5c-1.2,2.2-2.2,4.5-3.7,6.4
		c-9.1,11.2-18.2,22.5-27.7,33.3c-11.2,12.7-22.7,25.3-34.5,37.5c-22.8,23.6-45.9,46.9-70.5,68.6c-3.5,3.1-6.8,6.3-10.5,9.3
		c-8.5,6.9-17.6,13.1-25.7,20.5c-9.9,8.9-21.9,13.6-33.8,18.6c-10.1,4.2-20.7,7.3-31.1,10.9c0.6,0.4,1.8,1,3.4,1.7
		c7,2.3,14.1,4.6,21.3,7c4.6-2.5,8.9-4.8,13.1-7.3c8.8-5.4,17.5-10.7,26.1-16.4c6.4-4.2,12.4-8.9,18.6-13.3c4-2.9,8-6,12.2-8.7
		c15-9.8,30.1-19.6,45.1-29.4c0.6-0.4,1.3-0.7,2.1-1.1c0,0.8,0.1,1.2,0,1.4c-0.7,0.7-1.4,1.4-2.1,2.1
		c-12.1,10.9-24.4,21.5-37.6,31.1c-14.1,10.2-27,22.2-43.2,29.3c-7.6,5.5-16.2,9-24.4,13.5c-0.8,0.4-1.5,0.9-2.3,1.3
		c2.9,1,5.8,1.9,8.7,2.9c6.1-3.6,12.1-7.1,18.2-10.7c8.8-5.2,17.9-10.1,26.5-15.8c10.7-7,20.9-14.7,31.4-22.1
		c5.3-3.7,10.8-7.1,16.1-10.9c4.7-3.4,9.2-7.1,13.9-10.5c8.7-6.4,17.5-12.7,26.1-19.1c12.5-9.3,25.1-18.5,37.5-27.9
		c7.4-5.6,14.6-11.6,21.8-17.4c12.7-10.2,25.5-20.2,38-30.6c10.1-8.4,19.9-17.1,29.7-25.8c1.7-1.5,3.6-3.2,4.2-5.7
		C1337.1,261.6,1285.5,301.7,1231.3,338.5z M1176.7,360c-0.6,0.4-1.5,0.5-2.5,0.5c44.1-38.6,85-80.3,123.2-124.6
		c-10.4,16-22.4,30.6-35.1,44.6C1236.2,309.6,1208,336.4,1176.7,360z"/>
	<path d="M83.1,336.9c1.8,2.2,4,4.1,5.3,6.6c1.9,3.5,4.6,6.5,7.2,9.4c6.2,6.9,12.9,13.3,19.5,19.9c0.7,0.7,1.4,1.4,2.1,2.1
		c5.6,5.2,11,10.6,16.8,15.5c5,4.3,10.4,8.1,15.8,11.9c3.7,2.5,7.6,4.7,11.5,6.8c4.5,2.4,9.2,4.5,13.8,6.7c2.9-1.1,5.8-2.3,8.7-3.4
		c-7.4-2.1-14.3-5.4-20.9-9.1c-7-4-13.8-8.5-20.3-13.2c-5.2-3.8-9.9-8.2-14.6-12.6c-4.8-4.4-9.3-9-14-13.4
		c-6.2-5.7-12.2-11.5-17.6-17.9c-6.8-7.9-13.6-15.9-20.3-23.9c-3.7-4.4-7.2-9-10.9-13.4c-0.6-0.7-1.6-1-2.5-1.4
		c-0.3,0.3-0.5,0.6-0.7,0.9c3.5,5,6.8,10.1,10.4,15C75.8,328,79.5,332.4,83.1,336.9z"/>
	<path d="M360.2,136.4c2.8,7.8,5.7,15.6,8.6,23.3c2.1,5.4,4.3,10.8,6.3,16.2c1.6,4.3,2.9,8.6,2.9,13.4c0.1,21.8-0.6,43.6,0.8,65.4
		c0.9,13.6,1.6,27.2,2.9,40.7c1.1,11.1,2.6,22.1,5.3,32.9c1.3,5.2,1.6,10.9,5.2,15.4c0.2,0.3,0.4,0.6,0.5,1c2.6-0.6,5.1-1.2,7.7-1.8
		c-3.8-3.4-6.4-7.6-7.3-13.1c-1.1-6.9-3.1-13.6-4.2-20.4c-1.2-7-2-14.1-2.7-21.2c-1-9.7-1.9-19.5-2.8-29.2c0-0.5-0.1-1-0.1-1.5
		c-0.4-10.5-0.8-20.9-1.2-31.4c-0.3-9.1-0.6-18.3-0.8-27.4c0-1.3,0-2.6,0-4.8c1,1.2,1.5,1.7,1.7,2.2c3.1,8.9,6.4,17.8,9.2,26.8
		c1.4,4.4,2,9,2.6,13.6c1.5,12,2.8,24.1,4.3,36.1c1.5,11.5,3.4,23,4.7,34.5c1.3,10.7,3,21.4,2.4,32.2c-0.1,1.1-0.1,1.8-0.2,2.4
		c6.4-1.5,12.7-2.9,19-4.2c-0.5-0.5-1-1.1-1.6-1.6c0-6.5,0-13.4,0-20.3c0.4-0.1,0.8-0.1,1.3-0.2c2.2,7.1,5.8,13.6,8.4,20.5
		c4.8-1,9.5-1.9,14.2-2.7c-1.5-1.7-3-3.4-4-5.3c-3.5-6.9-6.6-14.1-9.8-21.2c-3.5-7.9-7.1-15.7-10.4-23.7c-1.9-4.6-3.6-9.3-4.6-14.1
		c-1.3-6-1.5-12.2-2.5-18.2c-2.5-15.9-5.2-31.7-7.8-47.6c-0.5-3.1-1.3-6.2-1.9-9.3c-1.6-9-3.2-18-4.8-27c-1.5-8.2-2.8-16.3-4.5-24.5
		c-0.7-3.6-1.3-7.3-3.7-11.2c0,2.8-0.2,4.8,0,6.8c1.2,8.4,2.6,16.7,4,25.1c2.3,14.2,4.6,28.5,6.8,42.7c1.6,10.2,3.2,20.3,4.7,30.5
		c0.7,4.7,1.1,9.5,1.6,14.2c-3.4-6.6-6.3-13.3-9-20.1c-2.5-6.3-5.3-12.5-5.9-19.5c-0.2-2.2-0.5-4.3-0.8-6.4
		c-1.5-9.2-3.1-18.3-4.5-27.5c-1.2-7.2-2-14.5-3.3-21.6c-2.2-11.9-4.6-23.7-6.9-35.6c-0.3-1.7-1-3.3-1.6-5c-0.4,0.1-0.8,0.2-1.2,0.3
		c3.2,25.5,8.1,50.8,10.6,76.4c-1.7-4.8-3.3-9.6-4.6-14.5c-1.3-5.1-2.4-10.3-3.7-15.8c-0.5-0.6-1.5-1.6-2.1-2.8
		c-0.6-1.2-0.7-2.6-1.1-3.8c-2.9-8.6-5.5-17.3-8.8-25.8c-3-7.7-5-15.7-7.7-23.4c-0.8-2.2-0.8-4.9-4-6.8c3.4,16.4,9.4,31.5,12.8,47.3
		c-0.7-0.3-1.2-0.7-1.4-1.3c-4.4-11.6-8.7-23.2-13.1-34.8c-1-2.8-2.5-5.5-3-8.4c-0.5-2.9-1.7-5.2-4-7.8c0.3,3.8,1.8,6.8,2.6,9.9
		C352.7,114.6,356.3,125.5,360.2,136.4z M406.5,266.4c1.6,8,5.5,15.3,8.1,22.9c0.5,1.6,1.1,3.2,1.3,4.8c1.4,12.5,1.8,25.1,1.3,37.7
		c-0.1,3.2-0.2,3.2-2.8,5.4c-1.6-1.2-2-2.8-2.1-4.7c-0.9-16.1-3.7-31.9-5.9-47.8c-1.1-7.7-1.9-15.3-2.1-23.3
		C405,263.1,406.1,264.7,406.5,266.4z"/>
	<path d="M519.9,323.3c2.1-0.2,4.3-0.4,6.4-0.6c0.6-5.8-0.2-11.5-0.7-17.2c-0.5-5.2-0.1-10.6,0-15.8c0.1-3.8,0.4-7.6,0.5-11.4
		c0.5-14.5,0.9-28.9,1.3-43.4c0.4-13.5,0.6-26.9,1-40.4c0.5-16.1,1.2-32.2,2-48.3c0.2-5.1,0.9-10.2,1.4-15.3c0.3,0,0.5,0,0.8-0.1
		c0.4,2.9,0.8,5.8,1.3,8.7c1.6,9.8,3.6,19.6,4.8,29.4c0.7,5.4,0.1,11,0,16.4c0,1.8-0.4,3.6-0.5,5.5c-0.4,25.8-0.8,51.6-1.3,77.4
		c-0.3,15.3-0.6,30.6-1,45.9c-0.1,2.6-0.4,5.1-0.8,7.8c2.2-0.2,4.4-0.4,6.6-0.6c0.4-4.4-1.2-8.9,1-13.1c0.2-0.4,0.4-1,0.3-1.4
		c-1.9-11.9-0.4-23.9-0.6-35.8c-0.2-10.6-0.1-21.3,0.1-32c0.1-6.1,0.4-12.2,0.6-18.4c0.1-6,0.1-11.9,0.1-17.9c0-1.8,0-3.6,0-5.5
		c2.4,3,2,6.5,2,10c0,18.6-0.2,37.3,0.2,55.9c0.2,11.1,1.5,22.2,2.3,33.3c0.1,1,0.2,2-0.1,2.9c-0.8,2.6,0.2,4.9,0.9,7.3
		c0.8,2.7,1.9,5.3,2.6,8c0.5,1.8,0.7,3.7,1,5.8c2.4-0.2,4.7-0.4,7.1-0.5c-1.3-2.9-2.2-5.8-2.6-9c-0.9-6.9-2.1-13.7-3.1-20.6
		c-0.5-3.3-0.9-6.6-1.1-9.9c-0.5-11.1-0.8-22.3-1.1-33.4c-0.2-5.1-0.4-10.2,0.1-15.5c0.5,0.9,1.2,1.7,1.4,2.6
		c3,13.8,6.8,27.4,11.4,40.7c1.6,4.7,3.4,9.3,4.8,14.1c1,3.3,1.5,6.8,2,10.2c0.7,5.3,1.3,10.5,1.8,15.8c0.1,1.3,0.4,2.6,0.2,4
		c2.2-0.1,4.3-0.3,6.5-0.4c-0.1-1.3-0.2-2.5-0.3-3.7c0-0.6,0.1-1.3,0.3-2.3c2.2,1.6,2.8,3.6,3.5,5.9c3-0.2,6-0.3,9-0.4
		c-1.4-1.1-2.7-2.2-3.3-3.6c-1.1-2.6-3.5-4-4.5-6.6c-1-2.9-2.9-5.5-4.2-8.4c-2-4.5-4.3-9-4.6-14c-0.4-5.6-0.7-11.3-0.9-16.9
		c-0.4-10-1.1-19.9-1.1-29.9c0.1-14.3-0.9-28.6-0.4-42.9c0.7-21.3,0.7-42.6,1.1-63.9c0.3-16.5,0.9-32.9,1.3-49.4c0-0.7,0-1.3,0.1-2
		c0.6-7.3,1.1-14.6,1.7-21.8c0.5-6.6,1.1-13.2,1.6-19.8c0-0.6-0.5-1.3-0.8-1.9c-1.2,3.4-1.6,6.6-2,9.9c-0.9,6.9-2.1,13.8-2.7,20.7
		c-1,10.9-1.6,21.9-2.3,32.8c-0.7,10.8-1.3,21.6-1.9,32.4c-0.4,7.9-0.7,15.9-1,23.8c-0.4,11.3-1,22.6-0.9,33.9
		c0.1,23.5,0.6,47,0.9,70.4c0,2,0,3.9,0,5.9c-3.6-10-6.4-20-9.1-30.1c-2-7.5-3.8-15.1-5.7-22.6c-1.3-5-2.4-10-2.2-15.2
		c0.4-10.6,0.6-21.3,1-31.9c0.3-9.5,0.6-19,1.1-28.4c0.7-15.3,1.4-30.6,2.2-45.9c0-0.8,0-1.7,0.1-2.5c0.9-10.1,1.8-20.2,2.7-30.3
		c0.7-7.4,1.3-14.9,1.9-22.3c0.4-4.5,0.8-8.9,1-13.4c0-0.8-0.5-1.6-0.7-2.4c-1.5,5.2-2.5,10.2-3.1,15.3c-1.2,10.4-2.3,20.8-3.4,31.2
		c-1.3,12.4-2.6,24.8-3.7,37.2c-0.8,9.4-1.4,18.9-2,28.3c-0.8,13.4-1.4,26.9-2.1,40.3c-0.1,1.2-0.2,2.3-0.3,3.5
		c-1.6-5-2.7-10-2.4-15.3c0.3-4.6,0.6-9.3,0.7-13.9c0.4-17.5,0.8-35,1.2-52.4c0-1,0.1-2,0.1-3c0.2-5,0.5-10,0.6-14.9
		c0-1-0.3-2.1-0.5-3.1c-0.3,0-0.6,0-1,0c-0.8,7.8-1.7,15.6-2.3,23.4c-0.6,8-0.8,16-1.2,23.9c-0.4,7.9-0.9,15.7-1.3,23.6
		c-0.8-1.2-1.2-2.5-1.4-3.7c-1-6.1-2-12.1-3-18.2c-1.6-9.2-3.1-18.3-1.4-27.7c0.1-0.4-0.5-0.9-1.1-1.8c-0.5,1.6-0.8,2.5-1.3,3.9
		c-0.5-2.8-0.9-5.1-1.3-7.4c-1.1-7.7-2.2-15.4-3.4-23.2c-0.1-0.6-0.8-1-1.2-1.6c-0.4,4.9-0.1,9.5,0.4,14.1
		c0.8,6.9,1.8,13.8,2.4,20.7c0.6,6.9,2.1,13.8,1.2,20.9c-0.6,4.6-1.4,9.2-1.8,13.8c-1,12.4-2,24.8-2.8,37.2
		c-0.8,13.4-1.5,26.9-2,40.4c-0.5,13-0.9,25.9-1.3,38.9c0,0.8,0,1.7-0.1,2.5c-0.5,8-1.4,15.9-1.5,23.9c-0.3,13.3-0.1,26.7-0.1,40
		C520,319.8,519.9,321.5,519.9,323.3z"/>
	<path d="M632.2,240.9c0.7,11.6,1.7,23.2,2.8,34.7c0.6,6.8,1.6,13.5,2.7,20.2c1.1,6.5,2.5,13,3.9,19.5c0.1,0.6,0.1,1,0,1.5
		c2.3,0,4.6,0,6.9,0.1c0,0,0,0,0-0.1c-1.3-4.4-2.4-9-3.2-13.5c-2.6-13.3-4.8-26.7-5.3-40.3c-0.4-8.6-1.3-17.2-1.8-25.8
		c-0.8-12.4-1.2-24.9-2.1-37.3c-1.6-23.4-0.8-46.9-0.9-70.3c0-0.5,0.2-1,0.6-1.5c0.4,5.7,0.8,11.4,1.3,17.1
		c0.9,9.6,1.8,19.2,2.7,28.7c0.7,7.6,1.5,15.2,2.4,22.8c1.1,9.5,2.5,19,3.7,28.6c0.8,6.7,1.5,13.5,2.1,20.3c0.8,9.1,1.3,18.2,2,27.3
		c0.7,8.6,1.4,17.2,2.2,25.7c0.5,4.9,1.3,9.8,1.8,14.8c0.1,1.2,0.1,2.4,0.1,3.6c8.7,0.1,17.4,0.4,26.2,0.8c-1.8-2.3-2.5-5.2-2.8-8.2
		c-0.6-6.3-0.9-12.6-1-18.9c-0.1-19.2-0.2-38.3-0.1-57.5c0.1-17.8,0.4-35.5,0.8-53.3c0.3-13.8,0.7-27.6,1-41.4
		c0.4-13.5,0.8-26.9,1.2-40.4c0.5,0.9,0.6,1.9,0.6,2.8c0.3,17,0.6,34,0.9,50.9c0.4,17.5,0.8,34.9,1.3,52.4
		c0.3,9.6,0.7,19.3,1.1,28.9c0,0.3,0,0.7,0,1c0.6,11,1.2,21.9,1.7,32.9c0.5,11.1,0.9,22.3,1.3,33.4c0,0.8,0.2,1.6,0.3,2.5
		c0.4,5,1.4,10,1.2,15.3c4.2,0.2,8.3,0.5,12.5,0.7c0.4-2.5,0.7-5.1,0.8-7.6c0.1-2.3-0.5-4.5-0.8-6.8c-0.3-2.1-0.8-4.3-0.9-6.4
		c-0.4-7.8-0.7-15.6-0.9-23.4c-0.7-19.6-1.3-39.2-2-58.9c-0.3-8.3-0.7-16.6-1-24.9c-0.4-10-0.7-20-1-29.9c-0.3-9.1-0.7-18.3-1-27.4
		c-0.4-10.1-0.7-20.3-1.1-30.4c-0.6-12.6-1.3-25.2-1.8-37.9c-0.5-10.1-0.8-20.3-1.3-30.4c-0.3-5.3-0.8-10.5-1.2-15.8
		c-1.2,3.8-1.8,7.6-1.8,11.5c0.1,9.8,0.4,19.6,0.7,29.4c0.3,12,0.7,24,1,35.9c0.4,15.1,0.7,30.3,1.1,45.4c0.3,12,0.6,24,1,35.9
		c0.3,10.3,0.6,20.6,1,30.9c0.3,11.5,0.7,22.9,1,34.4c0.4,16,0.8,31.9,1.3,47.9c0.2,8,0.5,15.9,0.8,23.9c0,1-0.1,2-0.2,3.1
		c-0.8-0.7-1.2-1.5-1.3-2.3c-0.4-4.8-0.9-9.6-1.2-14.4c-0.7-11.6-1.3-23.2-1.9-34.9c-0.5-10.5-0.7-21-1.1-31.4
		c-0.3-6.5-0.6-13-0.9-19.4c-0.7-16.6-1.4-33.2-2-49.8c-0.4-11.1-0.7-22.3-1-33.4c-0.4-15.8-0.8-31.6-1-47.4
		c-0.2-23.2-0.1-46.3-0.2-69.5c0-5-0.2-9.9-0.3-14.9c-1,2.6-0.7,5.3-1,7.9c-1.2,10.7-2.8,21.4-3.7,32.1c-1,12.2-1.4,24.5-2,36.8
		c-0.5,10.5-0.9,20.9-1.3,31.4c0,0.5,0,1-0.1,1.5c-0.5,7.8-1.1,15.6-1.6,23.4c-0.4,7-0.7,13.9-1,20.9c-0.4,9.3-0.8,18.6-1,27.9
		c-0.4,19.3-0.7,38.6-1,57.9c-0.2,12.3-0.1,24.7-0.1,37c0,6.1,0.5,12.3,0.6,18.4c0.1,4.8,0.2,9.7,0.2,14.5c0,2.5-0.5,4.9-3.3,6.6
		c-3-8.3-4.7-16.5-6.4-24.8c-2.2-10.7-4.1-21.5-5.9-32.3c-0.9-5.1-1.7-10.2-2.1-15.3c-0.8-10.8-1.4-21.6-1.9-32.4
		c-0.5-12.3-1-24.6-1.1-36.9c-0.2-22-0.1-44-0.1-66c0-6.3-0.2-12.7,0.4-19c0.8-8.6,0.4-17.2,0-25.9c-0.7,1.1-1.3,2.3-1.5,3.6
		c-0.7,7.8-1.5,15.5-1.9,23.3c-0.6,11.3-0.9,22.6-1.1,33.9c-0.2,12.3-0.2,24.7-0.2,37c0,6.5,0,13.1,0,19.6c-1.2-1.5-1.5-3.1-1.6-4.7
		c-0.5-6.3-0.8-12.6-1.4-18.9c-1.2-12.9-2.6-25.8-3.8-38.7c-0.5-4.8-0.8-9.6-1.1-14.4c-0.6-9.9-1.3-19.9-1.8-29.9
		c-0.2-4,0.1-8,0.1-12c0-6.1,0-12.2-0.1-18.4c0-0.8-0.1-2.2-0.4-2.3c-2.6-0.9-1.5-3-1.6-4.5c-0.5-7.2-0.8-14.4-1.1-21.6
		c-0.4,0-0.7,0-1.1,0c0,4.3-0.1,8.6,0,12.9c0.3,14.1-0.1,28.3,0.7,42.4c0.6,11.6-0.9,23.2-1.4,34.9c-0.5,11.5-1.1,23-1.1,34.4
		c0,22.1,0.4,44.3,0.8,66.4C631.1,218.4,631.5,229.7,632.2,240.9z"/>
	<path d="M587.9,94.4c0.3,10.1,0.5,20.3,0.9,30.4c0.3,10.3,0.8,20.6,1.1,30.9c0.2,4.7,0.1,9.3,0.3,14c0.4,6.3,1.1,12.6,1.5,18.8
		c0.5,7,0.6,13.9,1.1,20.9c0.9,13.1,1.9,26.2,2.9,39.3c0.9,10.9,2.1,21.8,3,32.7c0.9,11.3,3.5,22.3,5.8,33.3
		c0.2,0.9,0.2,1.8,0.2,2.7c2.4-0.1,4.9-0.2,7.3-0.2c-0.4-1-0.8-1.9-1-2.9c-1.4-5.3-2.8-10.6-3.7-16c-1.6-9.6-3-19.3-4.2-29
		c-1-8.4-1.5-16.9-2.2-25.3c-0.9-9.2-1.9-18.5-2.7-27.7c-0.8-9.1-1.4-18.2-2-27.3c-0.8-13.6-1.5-27.2-2.3-40.8
		c-0.3-6.3-0.6-12.6-1-18.9c-0.5-8-1.3-15.9-1.7-23.8c-0.6-11.6-0.9-23.3-1.4-34.9c-0.2-4.3-0.5-8.6-1-12.9
		c-0.2-1.6-0.8-3.1-1.2-4.6c-0.7,2.9-0.8,5.7-0.7,8.5C587.3,72.4,587.6,83.4,587.9,94.4z"/>
	<path d="M609.1,74.7c0.1,2.7,0.1,5.3,0.3,8c0.8,12.3,1.8,24.5,2.4,36.8c0.4,7.8,0.2,15.6,0.2,23.4c0,3.8-0.6,7.6-0.7,11.4
		c-0.4,12.8-1,25.6-1,38.4c-0.1,20.5-0.9,41,0.6,61.4c0.6,8.6,0.8,17.3,1.3,25.9c0.3,4.8,0.5,9.7,1.3,14.4
		c1.2,6.8,2.9,13.6,4.3,20.4c0.1,0.7,0.2,1.4,0.2,2.2c3-0.1,6-0.1,9.1-0.1c-2.5-2.3-4-5.4-4.9-8.9c-1.3-5.5-2.3-11-3-16.6
		c-1.1-8.9-1.9-17.8-2.8-26.7c-0.1-0.7,0-1.3-0.1-2c-1.1-24.3-1.4-48.6-1.2-72.9c0-4.8,0-9.6,0.5-14.5c0.4,3.4,0.9,6.8,1.2,10.3
		c1.3,12.7,2.6,25.4,3.9,38.1c0.8,7.8,1.4,15.5,2.3,23.3c1.1,9.7,2.4,19.4,3.7,29.1c1,7.7,2,15.5,3.2,23.1c1,5.7,2.4,11.4,3.6,17
		c0,0.2,0.1,0.4,0.1,0.6c1.6,0,3.2,0,4.8,0c-1.8-9-3.7-17.8-5.2-26.6c-1.4-8.4-2.2-16.8-3.3-25.2c-0.6-4.8-0.9-9.6-1.5-14.3
		c-0.8-6.4-1.7-12.8-2.5-19.3c-0.9-7.8-1.6-15.5-2.4-23.3c-1.4-13-2.9-26-4.3-39.1c-0.7-6.6-1.1-13.2-1.7-19.9
		c-0.6-7.1-1.5-14.2-1.6-21.3c-0.1-6.8,0.5-13.6,0.9-20.4c0.2-2.8,0.6-5.6,0.7-8.4c0.1-3.7,0-7.4,0-11.8c-2.5,3.1-1.6,6-2,8.7
		c-0.4,2.8-0.9,5.6-1.3,8.3c-0.2,0-0.3,0-0.5,0c-1.4-19.1-2.8-38.3-4.3-57.9c-2.1,1.6-1.8,3.4-1.7,5
		C608.4,59.1,608.8,66.9,609.1,74.7z"/>
	<path d="M482.9,89.6c0.3,29.6-0.7,59.3,0.8,88.9c0.6,12.3,0.7,24.6,1,36.9c0.3,9.5,0.6,19,1,28.4c0.7,15.6,1.3,31.2,2.2,46.8
		c0.6,9.9,1.9,19.8,2.8,29.6c0.2,2,0.4,4,0.2,6c0,0.1,0,0.1,0,0.2c0.4-0.1,0.9-0.1,1.3-0.2c5.8-0.7,11.5-1.3,17.2-1.9
		c-0.1-0.2-0.1-0.3-0.2-0.5c-0.6-2.9-0.8-5.9-1.1-8.9c-0.5-5.3-0.9-10.6-1.4-15.9c-1.2-13.2-2.5-26.5-3.7-39.7
		c-0.9-9.7-1.8-19.5-2.7-29.2c-0.7-7.8-1.5-15.5-2.2-23.3c-0.5-6.1-0.9-12.3-1.3-18.4c-0.3-4.1-0.6-8.3-1-12.4
		c-1.2-12.6-2.4-25.1-3.6-37.7c-0.8-8.1-1.4-16.2-2.2-24.3c-1.2-11.9-2.6-23.8-3.8-35.7c-1.1-10.7-2.2-21.5-3.3-32.2
		c-0.2-1.4-0.7-2.8-1.1-4.2c-0.6,5.7-0.8,11.1-0.6,16.6C481.7,69,482.8,79.3,482.9,89.6z M486.6,125.3c0,0,0.1,0,0.1,0
		c0.4,6.6,0.8,13.2,1.4,19.9c0.9,10.6,1.9,21.2,2.7,31.7c0.5,6.5,0.7,12.9,1.2,19.4c0.8,10.4,1.8,20.8,2.8,31.3
		c0.3,3.8,0.8,7.6,1,11.4c0.5,6.8,0.7,13.6,1.3,20.4c0.8,10.1,1.9,20.2,2.7,30.3c0.8,10.4,1.5,20.9,2.2,31.3
		c0.1,1.3-0.1,2.6-0.2,4.1c-1.4,0.1-2.5,0.2-3.5,0.3c-0.3-0.4-0.5-0.6-0.6-0.9c-2.1-5.5-1.8-11.3-2.4-17c-1.2-10.9-2-21.8-2.9-32.7
		c-0.5-6.5-0.7-12.9-1-19.4c-0.5-12.5-0.8-24.9-1.5-37.4c-0.9-15.3-1.7-30.5-1.9-45.8c-0.1-8.3-1.1-16.6-1.3-24.9
		C486.4,139.8,486.6,132.5,486.6,125.3z"/>
	<path d="M455.9,75.6c0.1,5.5-0.1,11,0.3,16.5c0.8,13.6,1.8,27.2,2.6,40.8c0.6,9.6,0.9,19.3,1.3,28.9c0.3,5.8,0.6,11.6,1.1,17.4
		c0.9,11.4,1.9,22.8,3,34.3c0.4,4.5,1,8.9,1.5,13.4c0.8,7.8,1.5,15.5,2.3,23.3c0.5,5.6,1,11.2,1.6,16.8c0.8,6.9,1.9,13.8,2.4,20.8
		c0.5,6.6,1.8,13,2.7,19.6c0.9,6.4,2.2,12.7,3.2,19.1c0.1,0.6,0.1,1.1,0.1,1.7c2.4-0.3,4.8-0.7,7.1-1c-0.7-1.2-1.2-2.5-1.4-3.9
		c-1.6-9.2-3-18.3-4.4-27.5c-0.8-5.4-1.5-10.9-2.1-16.3c-0.7-6.3-1.4-12.6-2.1-18.8c-0.9-8.2-1.9-16.5-2.7-24.7
		c-0.8-8.3-1.5-16.5-2.3-24.8c-1.2-13.1-2.6-26.1-3.8-39.2c-1-11.9-1.9-23.9-2.8-35.8c-1.4-18.7-3-37.4-4.1-56.2
		c-0.8-13.3-0.9-26.6-1.5-39.9c-0.2-4.4-0.7-8.7-1.1-13.4c-2,2.1-1.6,4.3-1.6,6.4C455.4,47.3,455.6,61.5,455.9,75.6z"/>
	<path d="M424,115.6c0.6,8.1,1.4,16.2,2.2,24.3c0.9,8.9,1.9,17.8,2.8,26.7c0.4,4,0.8,7.9,1.3,11.9c0.9,7.1,1.8,14.2,2.7,21.2
		c1,7.9,1.9,15.8,3,23.7c0.9,6.6,1.9,13.1,2.8,19.7c1.7,11.8,3.4,23.6,5.2,35.5c1.2,8,2.8,16,4.1,24c0.8,4.4,1.4,8.8,2.3,13.2
		c1.1,5.3,2.4,10.6,3.5,15.9c0,0.1,0,0.1,0,0.2c2.1-0.4,4.2-0.7,6.4-1.1c-0.8-3.2-1.6-6.3-2.3-9.5c-1.2-5.5-2.2-11.1-3.3-16.6
		c-1.2-6.4-2.5-12.7-3.6-19.1c-1.3-7.6-2.5-15.3-3.8-23c-1.7-11-3.6-21.9-5.2-32.9c-1.3-8.9-2.3-17.8-3.4-26.7
		c-1.2-9.5-2.5-19.1-3.7-28.6c-0.8-6.4-1.5-12.9-2.3-19.3c-0.8-6.4-1.8-12.8-2.6-19.2c-0.9-6.9-1.6-13.8-2.4-20.8
		c-0.9-7.9-1.9-15.8-2.7-23.7c-0.8-7.9-1.5-15.9-2.3-23.8c0-0.4-0.5-0.7-1.1-1.6c-0.3,1.3-0.6,2-0.6,2.7c0.2,3.3,0.5,6.6,0.7,9.9
		C422.6,91,423.2,103.3,424,115.6z"/>
	<path d="M436,142.7c0.3,5,0.6,9.9,1.1,14.9c0.9,10.1,2,20.1,3,30.2c0.4,4,0.8,7.9,1.3,11.9c0.8,7.1,1.8,14.2,2.6,21.3
		c0.8,6.8,1.5,13.5,2.3,20.3c0.8,6.4,1.8,12.8,2.8,19.2c0.9,5.6,1.8,11.1,2.7,16.7c0.8,4.6,1.5,9.2,2.3,13.7
		c1.1,6.2,2.1,12.3,3.6,18.4c1.4,5.8,3.3,11.5,4.8,17.2c0.3,1.3,0.6,2.5,0.6,3.9c2.2-0.3,4.3-0.7,6.5-1c-1.5-5.7-3.1-11.2-4.4-16.8
		c-1.4-5.8-2.5-11.7-3.7-17.5c-2.1-10.6-4.4-21.1-6.2-31.7c-1.7-10.3-2.9-20.7-4.4-31.1c-1.2-8.9-2.6-17.7-3.8-26.6
		c-0.9-6.9-1.4-13.9-2.2-20.8c-1.2-9.9-2.6-19.7-3.7-29.6c-0.9-7.8-1.4-15.5-2.3-23.3c-1.4-12.1-2.7-24.1-3-36.3
		c-0.1-3.7-0.9-7.3-1.4-11c-1,0.7-1.3,1.4-1.3,2.1c0.1,6.1,0,12.2,0.3,18.2C434.2,117.6,435.1,130.1,436,142.7z"/>
</g>
</svg>
